<?xml version="1.0" encoding="iso-8859-1"?>
<!-- Generator: Adobe Illustrator 18.1.1, SVG Export Plug-In . SVG Version: 6.00 Build 0)  -->
<svg version="1.1" id="Capa_1" xmlns="http://www.w3.org/2000/svg" xmlns:xlink="http://www.w3.org/1999/xlink" x="0px" y="0px"
	 viewBox="0 0 31.654 31.654" style="enable-background:new 0 0 31.654 31.654;" xml:space="preserve">
<g>
	<g>
		<path style="fill:#010002;" d="M23.292,5.926c0-0.242-0.193-0.44-0.435-0.44h-11.45c-0.24,0-0.434,0.198-0.434,0.44v2.899
			c0.26,0.252,0.483,0.558,0.63,0.948l0.122-0.087c0.036-0.035,0.077-0.06,0.116-0.089v-3.23h10.583v7.676H11.841v-0.827
			l-0.867,0.594v0.675c0,0.243,0.194,0.441,0.434,0.441c0,0,10.084,0,11.007,0c0.925,0,0.878-0.529,0.878-0.529V5.926H23.292z"/>
		<ellipse style="fill:#010002;" cx="6.811" cy="6.361" rx="1.831" ry="1.861"/>
		<path style="fill:#010002;" d="M30.327,24.698l-1.804-1.66l-0.266-0.245l-1.22-1.12c-1.459-1.345-3.083-0.819-4.581,0.481
			l-0.015,0.013l-0.087,0.101c-0.188-0.034-0.557-0.134-0.783-0.439c-0.227-0.309-0.266-0.763-0.118-1.354
			c0.062-0.248,0.104-0.47,0.126-0.666h2.712c0.958,0,1.731-0.795,1.731-1.775V1.771c0-0.98-0.773-1.771-1.731-1.771H1.771
			C0.813,0,0.037,0.791,0.037,1.771v16.262c0,0.98,0.776,1.775,1.734,1.775h8.641c0,0,0.375,3.549-2.62,3.549v1.775h2.62h5.236
			h2.622v-1.775c-3.111,0-2.622-3.549-2.622-3.549h5.383c-0.02,0.145-0.05,0.313-0.104,0.529c-0.19,0.76-0.121,1.372,0.209,1.82
			c0.232,0.316,0.549,0.484,0.813,0.575l-0.196,0.226l-0.024,0.03c-1.063,1.633-1.598,3.107-0.17,4.422l1.417,1.304l0.283,0.26
			l1.791,1.649c1.607,1.478,4.099,1.353,5.553-0.283C32.058,28.709,31.934,26.177,30.327,24.698z M4.453,15.596H3.912v-4.583h0.542
			L4.453,15.596z M13.147,18.705c-0.581,0-1.052-0.478-1.052-1.068c0-0.592,0.472-1.069,1.052-1.069
			c0.582,0,1.052,0.478,1.052,1.069C14.199,18.228,13.728,18.705,13.147,18.705z M9.248,15.596l-0.001-4.604h0.521v1.441
			c0,0.002,0,0.006,0,0.008c0,0.448,0.359,0.814,0.799,0.814c0.131,0,0.248-0.04,0.358-0.095l0.003,0.004l1.382-0.942l0.728-0.495
			l0.521-0.354l0,0c0-0.004,0.001-0.004,0.003-0.004c0.264-0.268,0.313-0.669,0.148-0.982l2.83-1.952l-0.787,2.495h0.763
			l0.349-1.167h1.279l0.366,1.167h0.799l-0.086-0.27c0.155,0.198,0.4,0.338,0.729,0.338c0.385,0,0.691-0.166,0.865-0.397h0.018
			l0.054,0.329h0.667c-0.037-0.183-0.048-0.446-0.048-0.714V9.147c0-0.651-0.271-1.257-1.208-1.257c-0.462,0-0.84,0.128-1.057,0.262
			l0.145,0.488c0.197-0.128,0.499-0.219,0.787-0.219c0.516,0,0.594,0.322,0.594,0.517v0.05c-1.064-0.007-1.711,0.368-1.732,1.09
			l-1.043-3.265h-0.943L16.71,7.899l-3.222,2.224c-0.134-0.101-0.289-0.154-0.449-0.16c-0.222-0.009-0.449,0.068-0.619,0.243
			c0,0-0.003,0.004-0.005,0.004l-0.104,0.074l-0.942,0.653V10.66c-0.175-2.114-2.587-2.082-2.587-2.082H7.74l-0.879,1.469
			L5.979,8.578H4.976c-2.542,0-2.56,1.831-2.56,2.523H2.415v4.494H1.894V1.886h22.275v13.71H9.248z M17.433,7.647
			c0.02-0.08,0.04-0.16,0.058-0.234h0.012c0.061,0.238,0.126,0.519,0.205,0.77l0.317,1.014h-1.039l0.312-1.014
			c0.028-0.104,0.056-0.218,0.084-0.331l0.166-0.111L17.433,7.647z M19.767,10.031c0-0.45,0.499-0.562,1.021-0.555v0.409
			c0,0.055,0,0.109-0.018,0.164c-0.072,0.215-0.283,0.409-0.583,0.409C19.953,10.459,19.767,10.325,19.767,10.031z M21.925,27
			c-1.226-1.125-0.656-2.287,0.249-3.69l0.652-0.747c1.289-1.107,2.594-1.631,3.847-0.479l1.235,1.137
			c-0.303,1.023-0.845,1.98-1.613,2.842l0,0c-1.031,1.159-2.229,1.885-2.942,2.251L21.925,27z M30.2,29.971
			c-1.254,1.406-3.399,1.516-4.783,0.242l-1.496-1.377c1.177-0.662,2.176-1.45,2.972-2.342c0.931-1.046,1.403-2.037,1.64-2.7
			l1.429,1.314C31.345,26.381,31.453,28.562,30.2,29.971z"/>
		<path style="fill:#010002;" d="M24.22,23.229c-0.369-0.341-0.943-0.311-1.278,0.064c-0.335,0.377-0.307,0.959,0.064,1.298
			l1.284,1.185c0.37,0.34,0.944,0.311,1.279-0.064c0.335-0.377,0.306-0.961-0.063-1.301L24.22,23.229z M25.165,25.339
			c-0.133,0.151-0.362,0.16-0.51,0.025l-1.284-1.181c-0.147-0.137-0.158-0.371-0.025-0.52c0.134-0.148,0.362-0.162,0.509-0.024
			l1.285,1.182C25.287,24.957,25.298,25.188,25.165,25.339z"/>
	</g>
</g>
<g>
</g>
<g>
</g>
<g>
</g>
<g>
</g>
<g>
</g>
<g>
</g>
<g>
</g>
<g>
</g>
<g>
</g>
<g>
</g>
<g>
</g>
<g>
</g>
<g>
</g>
<g>
</g>
<g>
</g>
</svg>
