<?xml version="1.0" encoding="iso-8859-1"?>
<!-- Generator: Adobe Illustrator 19.0.0, SVG Export Plug-In . SVG Version: 6.00 Build 0)  -->
<svg version="1.1" id="Layer_1" xmlns="http://www.w3.org/2000/svg" xmlns:xlink="http://www.w3.org/1999/xlink" x="0px" y="0px"
	 viewBox="0 0 490 490" style="enable-background:new 0 0 490 490;" xml:space="preserve">
<g transform="translate(0 -540.36)">
	<g>
		<g>
			<path d="M234.5,961.86c1.7,1.1,3.6,1.6,5.4,1.6c3.3,0,6.5-1.6,8.5-4.6c2.9-4.7,1.6-10.8-3.1-13.8l-98.9-62.9
				c-1.6-1.1-3.5-1.6-5.4-1.6H10c-5.5,0-10,4.5-10,10s4.5,10,10,10h128.1L234.5,961.86z"/>
			<path d="M447.3,963.96l-223.1,30.9l-94.2-60.8c-4.6-3-10.8-1.6-13.8,3s-1.6,10.8,3,13.8l97.3,62.9c1.6,1,3.5,1.6,5.4,1.6l0,0
				c0.4,0,0.9,0,1.4-0.2l226.8-31.4c5.4-0.8,9.3-5.8,8.5-11.3C457.8,967.06,452.8,963.16,447.3,963.96z"/>
			<path d="M486.1,651.76c-5-4-125.1-96.4-199.1-96.4c-74.8,0-194.9,92.4-199.9,96.4c-2.4,1.9-3.9,4.8-3.9,7.9c0,3.1,1.4,6,3.9,7.9
				c2.7,2.1,36.9,28.4,79.7,53.1v98.6c0,4,2.4,7.7,6.1,9.2c3.2,1.3,77.4,32.2,120.1,32.2c0.5,0,1.1,0,1.6,0
				c37.8-0.8,103.2-31.1,106-32.4c3.5-1.6,5.8-5.2,5.8-9.1v-98.6c11.4-6.6,22.3-13.3,32.1-19.7h0.1v22.3v20.4v41.3
				c0,5.4,4,10.1,9.4,10.4c5.8,0.3,10.6-4.3,10.6-10v-41.6v-20.4v-35.7c15.8-10.9,26.1-18.9,27.5-19.9c2.4-1.9,3.9-4.8,3.9-7.9
				C490,656.66,488.6,653.66,486.1,651.76z M386.5,812.76h-0.1c-16.6,7.3-64.6,27.3-92.2,27.9c-31.8,0.7-88.7-20.8-107.5-28.2v-80.8
				c0,0,0-0.1,0.1,0c33.9,17.8,70.6,32.3,100.2,32.3c29.2,0,65.7-14.4,99.4-32.2h0.1V812.76z M463.1,659.66
				c-14,10.3-40.5,28.8-70.5,45.9v0c-0.8,0.3-1.5,0.7-2.2,1.2c-34.9,19.7-74.1,37.2-103.5,37.2c-30.1,0-70-17.9-105.4-37.9l-0.1-0.1
				c-30.3-17.2-57.2-35.9-71.5-46.3v-0.1c30.8-22.4,121.1-84.2,177-84.2c55.3,0,145.4,61.9,176.2,84.2V659.66z"/>
		</g>
	</g>
</g>
<g>
</g>
<g>
</g>
<g>
</g>
<g>
</g>
<g>
</g>
<g>
</g>
<g>
</g>
<g>
</g>
<g>
</g>
<g>
</g>
<g>
</g>
<g>
</g>
<g>
</g>
<g>
</g>
<g>
</g>
</svg>
