<?xml version="1.0" encoding="iso-8859-1"?>
<!-- Generator: Adobe Illustrator 18.0.0, SVG Export Plug-In . SVG Version: 6.00 Build 0)  -->
<!DOCTYPE svg PUBLIC "-//W3C//DTD SVG 1.1//EN" "http://www.w3.org/Graphics/SVG/1.1/DTD/svg11.dtd">
<svg version="1.1" id="Capa_1" xmlns="http://www.w3.org/2000/svg" xmlns:xlink="http://www.w3.org/1999/xlink" x="0px" y="0px"
	 viewBox="0 0 471.083 471.083" style="enable-background:new 0 0 471.083 471.083;" xml:space="preserve">
<g>
	<path d="M461.128,297.043c-30.613-6.824-61.674-10.909-92.893-12.264v-47.691c23.35-0.873,47.829-8.23,47.829-46.562
		c0-18.571-5.79-45.421-14.407-66.811c-14.003-34.76-28.895-42.056-38.921-42.056c-18.166,0-31.192,22.871-38.921,42.056
		c-8.618,21.39-14.407,48.24-14.407,66.811c0,38.332,24.479,45.689,47.829,46.562v47.331c-3.113-0.071-6.227-0.119-9.342-0.135
		c-32.706-19.427-67.801-33.368-104.248-41.591v-23.632c9.477-0.758,24.206-4.783,24.206-26.156
		c0-16.778-10.409-57.812-29.705-57.812s-29.705,41.034-29.705,57.812c0,10,3.189,17.256,9.479,21.568
		c4.441,3.044,9.776,4.171,14.725,4.565v21.341c-18.311-3.528-36.933-5.621-55.737-6.258V212.91
		c8.97-0.779,22.595-4.725,22.595-24.752c0-15.768-9.845-54.333-28.095-54.333c-8.075,0-15.363,7.499-21.079,21.686
		c-4.263,10.58-7.017,23.395-7.017,32.647c0,20.028,13.625,23.974,22.595,24.752v21.014c-7.997-0.028-16.021,0.201-24.064,0.701
		c0-0.009,0-0.017,0-0.026c0-23.095-7.209-56.507-17.94-83.144C106.658,108.646,88.581,99.66,76.453,99.66
		c-12.128,0-30.206,8.986-47.452,51.795c-10.731,26.636-17.94,60.049-17.94,83.144c0,12.778,2.235,22.738,6.062,30.492
		c-2.84,1.261-5.631,2.538-8.33,3.823c-2.743,1.305-3.908,4.587-2.603,7.33c0.942,1.98,2.914,3.138,4.97,3.138
		c0.792,0,1.597-0.172,2.359-0.535c3.155-1.501,6.433-2.995,9.782-4.462c9.792,11.149,24.294,15.322,39.141,16.681l-4.136,74.195
		c-16.035,1.159-32.059,3.044-48.048,5.677c-2.998,0.494-5.027,3.323-4.533,6.32c0.493,2.997,3.327,5.026,6.32,4.533
		c67.314-11.086,135.268-8.818,201.973,6.74c65.712,15.326,126.987,42.763,182.122,81.549c0.962,0.677,2.066,1.002,3.16,1.002
		c1.729,0,3.433-0.814,4.503-2.336c1.748-2.484,1.15-5.915-1.334-7.663c-56.295-39.603-118.859-67.617-185.952-83.265
		c-40.383-9.418-81.215-14.065-122.094-13.93l-6.581-72.61c24.714-1.732,49.198-10.55,53.378-45.587
		c30.946-2.04,61.619-0.034,91.426,5.899v7.57c0,3.038,2.462,5.5,5.5,5.5s5.5-2.462,5.5-5.5v-5.183
		c28.485,6.642,56.097,16.902,82.312,30.651c-9.152,0.328-18.306,0.87-27.456,1.669c-54.905,4.794-108.415,17.974-159.042,39.173
		c-2.802,1.173-4.123,4.396-2.949,7.197c0.883,2.108,2.925,3.377,5.076,3.377c0.708,0,1.428-0.138,2.122-0.428
		c49.578-20.76,101.98-33.666,155.751-38.361c53.43-4.666,107.019-1.124,159.276,10.524c2.966,0.662,5.904-1.207,6.565-4.171
		C465.96,300.644,464.093,297.704,461.128,297.043z M320.406,190.527c0-17.296,5.47-42.493,13.61-62.7
		c8.871-22.021,19.607-35.167,28.718-35.167s19.847,13.146,28.718,35.167c8.141,20.207,13.61,45.404,13.61,62.7
		c0,27.552-13.947,34.673-36.829,35.559v-26.052l19.292-16.323c2.319-1.962,2.608-5.433,0.646-7.751
		c-1.961-2.318-5.432-2.607-7.751-0.646l-12.186,10.311v-19.689l14.495-28.266c1.386-2.703,0.318-6.018-2.384-7.404
		c-2.704-1.387-6.018-0.318-7.404,2.384l-11.326,22.088l-13.572-16.121c-1.956-2.323-5.425-2.621-7.75-0.665
		c-2.324,1.957-2.621,5.426-0.665,7.75l17.607,20.913v17.062l-10.155-4.539c-2.774-1.239-6.026,0.003-7.266,2.777
		c-1.239,2.773,0.004,6.026,2.777,7.266l14.644,6.545v30.36C334.353,225.201,320.406,218.08,320.406,190.527z M219.44,192.906
		c0-8.438,2.689-20.782,6.691-30.716c4.455-11.059,9.351-16.096,12.014-16.096s7.559,5.037,12.014,16.096
		c4.002,9.934,6.691,22.278,6.691,30.716c0,11.607-4.545,15.333-18.705,15.333S219.44,204.513,219.44,192.906z M154.313,188.157
		c0-7.834,2.5-19.303,6.22-28.537c4.715-11.704,9.175-14.796,10.875-14.796s6.161,3.092,10.875,14.796
		c3.72,9.234,6.22,20.703,6.22,28.537c0,10.558-4.154,13.947-17.095,13.947S154.313,198.715,154.313,188.157z M83.392,364.048
		c-4.677,0.114-9.354,0.287-14.031,0.526l4.067-72.952c1.012,0.016,2.021,0.023,3.025,0.023c0.125,0,0.251-0.001,0.377-0.001
		L83.392,364.048z M115.692,272.205c-7.528,5.161-18.34,7.844-33.727,8.346v-34.545l37.758-28.453
		c2.426-1.828,2.911-5.277,1.083-7.703c-1.828-2.425-5.276-2.911-7.703-1.083l-31.138,23.464v-36.268l27.268-22.567
		c2.34-1.937,2.667-5.404,0.73-7.744c-1.938-2.34-5.404-2.666-7.744-0.73l-23.802,19.698L64.584,158.58
		c-1.425-2.683-4.755-3.703-7.438-2.276c-2.682,1.425-3.702,4.755-2.276,7.438l16.096,30.298v22.341l-21.703-13.855
		c-2.562-1.635-5.962-0.884-7.595,1.676c-1.635,2.56-0.884,5.961,1.676,7.595l27.622,17.634v51.122
		c-15.4-0.5-26.221-3.183-33.753-8.347c-10.196-6.989-15.152-19.291-15.152-37.606c0-44.426,27.416-123.938,54.392-123.938
		c11.996,0,25.92,16.787,37.248,44.905c10.254,25.453,17.144,57.214,17.144,79.033C130.844,252.914,125.888,265.215,115.692,272.205
		z"/>
	<path d="M149.438,96.696c17.645,0,32-14.355,32-32s-14.355-32-32-32s-32,14.355-32,32S131.792,96.696,149.438,96.696z
		 M149.438,43.696c11.58,0,21,9.42,21,21s-9.42,21-21,21s-21-9.42-21-21S137.858,43.696,149.438,43.696z"/>
	<path d="M143.936,106.839V137.5c0,3.038,2.462,5.5,5.5,5.5s5.5-2.462,5.5-5.5v-30.661c0-3.038-2.462-5.5-5.5-5.5
		S143.936,103.802,143.936,106.839z"/>
	<path d="M149.436,28.06c3.038,0,5.5-2.462,5.5-5.5V5.5c0-3.038-2.462-5.5-5.5-5.5s-5.5,2.462-5.5,5.5v17.06
		C143.936,25.597,146.398,28.06,149.436,28.06z"/>
	<path d="M115.749,90.608l-9.903,9.903c-2.148,2.148-2.148,5.63,0,7.778c1.074,1.074,2.481,1.611,3.889,1.611
		s2.815-0.537,3.889-1.611l9.903-9.903c2.148-2.148,2.148-5.63,0-7.778C121.379,88.46,117.897,88.46,115.749,90.608z"/>
	<path d="M179.233,40.402c1.407,0,2.815-0.537,3.889-1.611l28.753-28.752c2.148-2.148,2.148-5.63,0-7.778s-5.63-2.148-7.778,0
		l-28.753,28.752c-2.148,2.148-2.148,5.63,0,7.778C176.418,39.865,177.825,40.402,179.233,40.402z"/>
	<path d="M81.335,70.199h25.96c3.038,0,5.5-2.462,5.5-5.5s-2.462-5.5-5.5-5.5h-25.96c-3.038,0-5.5,2.462-5.5,5.5
		S78.298,70.199,81.335,70.199z"/>
	<path d="M223.335,70.199h68c3.038,0,5.5-2.462,5.5-5.5s-2.462-5.5-5.5-5.5h-68c-3.038,0-5.5,2.462-5.5,5.5
		S220.298,70.199,223.335,70.199z"/>
	<path d="M202.835,70.199c3.038,0,5.5-2.462,5.5-5.5s-2.462-5.5-5.5-5.5h-11.259c-3.038,0-5.5,2.462-5.5,5.5s2.462,5.5,5.5,5.5
		H202.835z"/>
	<path d="M115.749,38.791c1.074,1.074,2.481,1.611,3.889,1.611s2.815-0.537,3.889-1.611c2.148-2.148,2.148-5.63,0-7.778
		l-8.854-8.853c-2.148-2.147-5.631-2.147-7.778,0c-2.148,2.148-2.148,5.63,0,7.778L115.749,38.791z"/>
	<path d="M175.344,90.608c-2.148,2.148-2.148,5.63,0,7.778l37.024,37.024c1.074,1.074,2.481,1.611,3.889,1.611
		s2.815-0.537,3.889-1.611c2.148-2.148,2.148-5.63,0-7.778l-37.024-37.024C180.974,88.46,177.492,88.46,175.344,90.608z"/>
</g>
<g>
</g>
<g>
</g>
<g>
</g>
<g>
</g>
<g>
</g>
<g>
</g>
<g>
</g>
<g>
</g>
<g>
</g>
<g>
</g>
<g>
</g>
<g>
</g>
<g>
</g>
<g>
</g>
<g>
</g>
</svg>
